# xmcd
#
# Track frame offsets:
#	150
#	11918
#	21367
#	40088
#	51075
#	65009
#	78910
#	92579
#	110411
#	129733
#	137283
#	148399
#
# Disc length: 2160
#
# Revision: 4
# Processed by: cddbd v1.5.1PL0 Copyright (c) Steve Scherf et al.
# Submitted via: CDex 1.51
# Normalized: r3:TDELIM( - )
#
DISCID=a5086e0c
DTITLE=Various Artist - dinner party Jazz - Disc One
DYEAR=1900
DGENRE=Jazz
TTITLE0=Ella Fitzgerald - A-Tisket A-Tasket
TTITLE1=Tony Bennett - Jeepers Creepers
TTITLE2=Duke Ellington and His Orchestra - Midriff
TTITLE3=Nat King Cole Trio - Straighten Up and Fly Right
TTITLE4=Glenn Miller and His Orchestra - A String of Pearls
TTITLE5=Stan Getz Quartet - My Romance
TTITLE6=Sarah Vaughan - Time After Time
TTITLE7=Benny Goodman and His Orchestra - Honeysuckle Rose
TTITLE8=Miles Davis - Darn That Dream
TTITLE9=Lena Horne - More
TTITLE10=Mel Torme - I'm Getting Sentimental Over You
TTITLE11=Harry James and His Musicmakers - Cherry
EXTD=
EXTT0=
EXTT1=
EXTT2=
EXTT3=
EXTT4=
EXTT5=
EXTT6=
EXTT7=
EXTT8=
EXTT9=
EXTT10=
EXTT11=
PLAYORDER=
